<svg aria-hidden="true" style="position: absolute; width: 0; height: 0; overflow: hidden;" version="1.1" xmlns="http://www.w3.org/2000/svg" xmlns:xlink="http://www.w3.org/1999/xlink">
<defs>
<symbol id="icon-logo" viewBox="0 0 32 32">
<path d="M2.764 8.355c0.258-0.328 0.598-0.772 0.87-1.089 0.815-0.875 0.92-0.989 1.662-1.636 0.22-0.171 0.481-0.376 0.736-0.569-1.882 1.507-2.121 3.175-0.395 4.205-0.003 0-0.003 0-0.003 0.003 2.414 1.376 7.706 1.079 11.881-0.684 4.044-1.707 5.537-4.148 3.541-5.599-1.752-0.311-3.841-0.347-6.051-0.067l-0.23-0.359 0.19-0.595c1.3-0.111 2.534-0.084 3.6 0.088 0.258 0.041 0.598 0.112 0.851 0.163 0.491 0.113 0.757 0.181 1.077 0.279 0.327 0.092 0.606 0.184 1.092 0.355 0.476 0.177 0.682 0.257 1.064 0.437 0.428 0.185 0.843 0.393 1.245 0.625 3.18 1.892 1.202 5.344-4.409 7.709-5.596 2.357-12.726 2.728-15.922 0.859-0.001-0.003-0.006-0.005-0.014-0.008h0.006c-1.745-1.045-1.928-2.563-0.791-4.117zM17.323 21.581l-0.045-2.125-1.597-1.68c-5.276 1.131-10.461 0.888-13.345-0.719-0.010-0.011-0.034-0.021-0.044-0.032-1.632-0.951-2.035-2.177-1.913-3.511-0.382 1.951-0.413 2.655-0.358 4.324 0.068 1.045 0.706 2.009 1.99 2.769l0.010 0.011c3.074 1.808 9.479 2.2 15.302 0.963zM23.983 24.015c-7.446 2.825-16.766 2.992-20.814 0.377 0.437 1.011 1.032 1.954 1.765 2.797 3.715 2.4 12.27 2.247 19.102-0.347 3.999-1.516 6.522-3.533 7.184-5.424l0.186-0.569c0.441-1.443 0.524-2.644 0.595-3.713-0.080 2.321-2.971 4.961-8.017 6.879zM7.545 29.456c0.234 0.211 0.97 1.065 4.698 2.009 1.008 0.211 3.545 0.887 8.232-0.096l0.028-0.404-0.371-0.549c-4.348 0.973-9.179 0.648-12.587-0.96zM18.305 12.644l3.959 2.839c0 0 0.847 0.577 0.048 0.983-0.796 0.401-2.842 1.384-2.842 1.384l-2.020-0.713-1.013 0.427 1.787 1.468 0.014 2.284 1.050-0.441 0.696-1.929c0 0 2.138-0.779 2.987-1.072 0.853-0.287 0.739 0.695 0.739 0.695l-0.42 4.681 1.395-0.587 2.297-6.316c0 0 1.218-0.56 2.075-1.052 0.856-0.492 1.149-1.308 1.149-1.308s-0.834-0.34-1.796-0.067c-0.961 0.271-2.214 0.753-2.214 0.753l-6.501-2.612-1.391 0.584zM9.928 3.663l2.688 2.025 0.734-0.104-1.463-1.817c0 0-0.319-0.376 0.11-0.465 0.431-0.091 1.522-0.301 1.522-0.301l0.82 0.62 0.553-0.077-0.626-0.941 0.33-1.044-0.534 0.073-0.633 0.795c0 0-1.111 0.099-1.548 0.133-0.44 0.032-0.251-0.415-0.251-0.415l0.843-2.144-0.739 0.103-1.945 2.679c0 0-0.648 0.112-1.118 0.239-0.471 0.125-0.719 0.469-0.719 0.469s0.345 0.264 0.832 0.255c0.491-0.009 1.143-0.081 1.143-0.081zM23.213 29.687l-1.739-0.86-0.4 0.132 1.030 0.872c0 0 0.22 0.177-0.011 0.272-0.231 0.093-0.82 0.323-0.82 0.323l-0.486-0.205-0.289 0.099 0.405 0.408-0.039 0.596 0.302-0.099 0.226-0.484c0 0 0.612-0.172 0.856-0.233 0.242-0.063 0.187 0.207 0.187 0.207l-0.23 1.287 0.402-0.132 0.788-1.701c0 0 0.348-0.129 0.598-0.248s0.348-0.337 0.348-0.337-0.221-0.115-0.495-0.057c-0.275 0.055-0.63 0.163-0.63 0.163z"></path>
</symbol>
<symbol id="icon-airplane" viewBox="0 0 32 32">
<path d="M5.12 0h21.76c2.828 0 5.12 2.292 5.12 5.12v21.76c0 2.828-2.292 5.12-5.12 5.12h-21.76c-2.828 0-5.12-2.292-5.12-5.12v-21.76c0-2.828 2.292-5.12 5.12-5.12z"></path>
<path d="M23.658 22.705c0 0.174-0.068 0.34-0.19 0.463s-0.286 0.192-0.458 0.192h-11.653c-0.172 0-0.336-0.069-0.458-0.192s-0.19-0.289-0.19-0.463c0-0.174 0.068-0.34 0.19-0.463s0.286-0.192 0.458-0.192h11.653c0.172 0 0.336 0.069 0.458 0.192s0.19 0.289 0.19 0.463zM25.6 16.16v1.964c0 0.174-0.068 0.34-0.19 0.463s-0.286 0.192-0.458 0.192h-14.259c-0.697 0.002-1.375-0.224-1.934-0.644s-0.968-1.013-1.166-1.688l-1.141-3.837c-0.057-0.196-0.068-0.403-0.033-0.605s0.116-0.392 0.235-0.557c0.122-0.163 0.28-0.295 0.461-0.386s0.38-0.138 0.583-0.138h1.392c0.095 0 0.188 0.022 0.273 0.063s0.161 0.101 0.22 0.175l1.424 1.726h1.392l-0.728-2.201c-0.066-0.197-0.084-0.407-0.053-0.613s0.109-0.401 0.23-0.57c0.12-0.169 0.278-0.306 0.462-0.401s0.386-0.144 0.592-0.143h1.368c0.090-0 0.179 0.018 0.261 0.055s0.156 0.090 0.216 0.158l3.367 3.715h4.249c0.859 0 1.682 0.345 2.289 0.959s0.948 1.446 0.948 2.314zM24.305 16.16c-0.002-0.52-0.207-1.018-0.571-1.386s-0.857-0.575-1.371-0.578h-4.532c-0.090 0-0.179-0.018-0.261-0.055s-0.156-0.090-0.216-0.158l-3.367-3.715h-1.084l1.012 3.068c0.032 0.098 0.040 0.203 0.025 0.305s-0.054 0.2-0.114 0.284c-0.060 0.084-0.139 0.153-0.23 0.2s-0.193 0.071-0.296 0.070h-2.59c-0.095-0-0.188-0.022-0.273-0.063s-0.161-0.101-0.22-0.175l-1.424-1.726h-1.101l1.141 3.837c0.119 0.405 0.365 0.761 0.7 1.013s0.743 0.388 1.161 0.386h13.612v-1.309z"></path>
</symbol>
<symbol id="icon-bicycle" viewBox="0 0 32 32">
<path d="M5.12 0h21.76c2.828 0 5.12 2.292 5.12 5.12v21.76c0 2.828-2.292 5.12-5.12 5.12h-21.76c-2.828 0-5.12-2.292-5.12-5.12v-21.76c0-2.828 2.292-5.12 5.12-5.12z"></path>
<path d="M11.333 22.322c-0.619 0-1.212-0.255-1.65-0.71s-0.683-1.071-0.683-1.713c0-0.643 0.246-1.259 0.683-1.713s1.031-0.71 1.65-0.71c0.619 0 1.212 0.255 1.65 0.71s0.683 1.071 0.683 1.713c0 0.643-0.246 1.259-0.683 1.713s-1.031 0.71-1.65 0.71zM11.333 16.437c-0.884 0-1.732 0.365-2.357 1.014s-0.976 1.53-0.976 2.448c0 0.918 0.351 1.799 0.976 2.448s1.473 1.014 2.357 1.014c0.884 0 1.732-0.365 2.357-1.014s0.976-1.53 0.976-2.448-0.351-1.799-0.976-2.448c-0.625-0.649-1.473-1.014-2.357-1.014zM17.867 15.052h2.8v-1.246h-2.133l-1.293-2.264c-0.193-0.346-0.573-0.575-0.973-0.575-0.313 0-0.6 0.132-0.8 0.346l-2.467 2.555c-0.207 0.215-0.333 0.492-0.333 0.838 0 0.436 0.22 0.803 0.567 1.018l2.233 1.405v3.462h1.2v-4.5l-1.5-1.142 1.547-1.627 1.153 1.731zM20.667 22.322c-0.619 0-1.212-0.255-1.65-0.71s-0.683-1.071-0.683-1.713c0-0.643 0.246-1.259 0.683-1.713s1.031-0.71 1.65-0.71c0.619 0 1.212 0.255 1.65 0.71s0.683 1.071 0.683 1.713c0 0.643-0.246 1.259-0.683 1.713s-1.031 0.71-1.65 0.71zM20.667 16.437c-0.884 0-1.732 0.365-2.357 1.014s-0.976 1.53-0.976 2.448c0 0.918 0.351 1.799 0.976 2.448s1.473 1.014 2.357 1.014c0.438 0 0.871-0.090 1.276-0.264s0.772-0.429 1.081-0.75c0.31-0.321 0.555-0.703 0.723-1.123s0.254-0.87 0.254-1.325c0-0.455-0.086-0.905-0.254-1.325s-0.413-0.802-0.723-1.123c-0.309-0.321-0.677-0.576-1.081-0.75s-0.838-0.264-1.276-0.264v0zM18.667 11.452c0.667 0 1.2-0.554 1.2-1.246s-0.533-1.246-1.2-1.246c-0.667 0-1.2 0.554-1.2 1.246s0.533 1.246 1.2 1.246z"></path>
</symbol>
<symbol id="icon-calc" viewBox="0 0 32 32">
<path d="M5.12 0h21.76c2.828 0 5.12 2.292 5.12 5.12v21.76c0 2.828-2.292 5.12-5.12 5.12h-21.76c-2.828 0-5.12-2.292-5.12-5.12v-21.76c0-2.828 2.292-5.12 5.12-5.12z"></path>
<path d="M12.071 16.924c0.306 0 0.6-0.122 0.817-0.338s0.338-0.511 0.338-0.817-0.122-0.6-0.338-0.817c-0.217-0.217-0.511-0.338-0.817-0.338s-0.6 0.122-0.817 0.338c-0.217 0.217-0.338 0.511-0.338 0.817s0.122 0.6 0.338 0.817c0.217 0.217 0.511 0.338 0.817 0.338zM17.156 15.769c0 0.306-0.122 0.6-0.338 0.817s-0.511 0.338-0.817 0.338-0.6-0.122-0.817-0.338c-0.217-0.217-0.338-0.511-0.338-0.817s0.122-0.6 0.338-0.817c0.217-0.217 0.511-0.338 0.817-0.338s0.6 0.122 0.817 0.338c0.217 0.217 0.338 0.511 0.338 0.817zM19.929 16.924c0.306 0 0.6-0.122 0.817-0.338s0.338-0.511 0.338-0.817c0-0.306-0.122-0.6-0.338-0.817s-0.511-0.338-0.817-0.338c-0.306 0-0.6 0.122-0.817 0.338s-0.338 0.511-0.338 0.817 0.122 0.6 0.338 0.817c0.217 0.217 0.511 0.338 0.817 0.338zM13.227 19.467c0 0.306-0.122 0.6-0.338 0.817s-0.511 0.338-0.817 0.338-0.6-0.122-0.817-0.338c-0.217-0.217-0.338-0.511-0.338-0.817s0.122-0.6 0.338-0.817 0.511-0.338 0.817-0.338c0.306 0 0.6 0.122 0.817 0.338s0.338 0.511 0.338 0.817zM16 20.622c0.306 0 0.6-0.122 0.817-0.338s0.338-0.511 0.338-0.817c0-0.306-0.122-0.6-0.338-0.817s-0.511-0.338-0.817-0.338-0.6 0.122-0.817 0.338c-0.217 0.217-0.338 0.511-0.338 0.817s0.122 0.6 0.338 0.817c0.217 0.217 0.511 0.338 0.817 0.338zM7.68 10.569c0-0.766 0.304-1.501 0.846-2.043s1.277-0.846 2.043-0.846h10.862c0.766 0 1.501 0.304 2.043 0.846s0.846 1.277 0.846 2.043v10.862c0 0.766-0.304 1.501-0.846 2.043s-1.277 0.846-2.043 0.846h-10.862c-0.766 0-1.501-0.304-2.043-0.846s-0.846-1.277-0.846-2.043v-10.862zM10.569 8.836c-0.46 0-0.901 0.183-1.226 0.508s-0.508 0.766-0.508 1.226v0.809h14.329v-0.809c0-0.46-0.183-0.901-0.508-1.226s-0.766-0.508-1.226-0.508h-10.862zM8.836 21.431c0 0.46 0.183 0.901 0.508 1.226s0.766 0.508 1.226 0.508h10.862c0.46 0 0.901-0.183 1.226-0.508s0.508-0.766 0.508-1.226v-8.898h-14.329v8.898z"></path>
</symbol>
<symbol id="icon-arrow-right" viewBox="0 0 31 32">
<path d="M1.951 16c0-0.259 0.103-0.507 0.286-0.69s0.431-0.286 0.69-0.286h23.011l-6.14-6.139c-0.183-0.183-0.286-0.432-0.286-0.691s0.103-0.508 0.286-0.691c0.183-0.183 0.432-0.286 0.691-0.286s0.508 0.103 0.691 0.286l7.805 7.805c0.091 0.091 0.163 0.198 0.212 0.317s0.074 0.246 0.074 0.374c0 0.128-0.025 0.255-0.074 0.374s-0.121 0.226-0.212 0.317l-7.805 7.805c-0.183 0.183-0.432 0.286-0.691 0.286s-0.508-0.103-0.691-0.286c-0.183-0.183-0.286-0.432-0.286-0.691s0.103-0.508 0.286-0.691l6.14-6.139h-23.011c-0.259 0-0.507-0.103-0.69-0.286s-0.286-0.431-0.286-0.69z"></path>
</symbol>
<symbol id="icon-instagram" viewBox="0 0 32 32">
<path d="M9.852 1.407c1.548-0.071 2.042-0.087 5.985-0.087s4.437 0.017 5.984 0.087c1.547 0.070 2.603 0.317 3.526 0.674 0.967 0.366 1.845 0.937 2.571 1.676 0.739 0.725 1.309 1.601 1.673 2.57 0.359 0.924 0.604 1.98 0.676 3.524 0.071 1.551 0.087 2.044 0.087 5.986 0 3.943-0.017 4.437-0.087 5.985-0.070 1.544-0.317 2.6-0.676 3.524-0.364 0.969-0.935 1.847-1.673 2.572-0.726 0.739-1.604 1.309-2.571 1.674-0.924 0.359-1.98 0.604-3.524 0.676-1.549 0.071-2.043 0.087-5.986 0.087s-4.437-0.017-5.985-0.087c-1.544-0.070-2.6-0.317-3.524-0.676-0.969-0.364-1.847-0.935-2.572-1.674-0.739-0.725-1.31-1.602-1.675-2.571-0.358-0.924-0.603-1.98-0.674-3.524-0.071-1.551-0.087-2.044-0.087-5.986 0-3.943 0.017-4.437 0.087-5.984s0.317-2.603 0.674-3.526c0.365-0.969 0.937-1.846 1.676-2.571 0.725-0.738 1.601-1.31 2.57-1.675 0.924-0.358 1.98-0.603 3.524-0.674h0.001zM21.704 4.020c-1.531-0.070-1.99-0.084-5.866-0.084s-4.335 0.014-5.866 0.084c-1.416 0.065-2.184 0.301-2.696 0.5-0.677 0.264-1.161 0.577-1.67 1.085-0.482 0.469-0.852 1.039-1.085 1.67-0.199 0.512-0.436 1.28-0.5 2.696-0.070 1.531-0.084 1.99-0.084 5.866s0.014 4.335 0.084 5.866c0.065 1.416 0.301 2.184 0.5 2.696 0.232 0.629 0.603 1.201 1.085 1.669 0.469 0.482 1.040 0.853 1.67 1.085 0.512 0.199 1.28 0.436 2.696 0.5 1.531 0.070 1.989 0.084 5.866 0.084s4.335-0.015 5.866-0.084c1.416-0.065 2.184-0.301 2.696-0.5 0.677-0.264 1.161-0.577 1.669-1.085 0.482-0.469 0.853-1.040 1.085-1.669 0.199-0.512 0.435-1.28 0.5-2.696 0.070-1.531 0.085-1.99 0.085-5.866s-0.015-4.335-0.085-5.866c-0.065-1.416-0.301-2.184-0.5-2.696-0.264-0.677-0.577-1.161-1.085-1.67-0.469-0.482-1.039-0.852-1.669-1.085-0.512-0.199-1.28-0.436-2.696-0.5zM13.983 20.313c1.036 0.431 2.189 0.489 3.262 0.165s2.001-1.012 2.625-1.945 0.903-2.053 0.792-3.169c-0.111-1.116-0.606-2.159-1.4-2.951-0.506-0.506-1.119-0.894-1.793-1.135s-1.393-0.33-2.106-0.259c-0.713 0.070-1.401 0.298-2.015 0.666s-1.139 0.868-1.537 1.463c-0.398 0.595-0.659 1.272-0.764 1.98s-0.052 1.431 0.156 2.116 0.565 1.316 1.046 1.847c0.481 0.531 1.073 0.948 1.735 1.223zM10.561 10.561c0.693-0.693 1.515-1.243 2.421-1.618s1.876-0.568 2.856-0.568c0.98 0 1.95 0.193 2.856 0.568s1.728 0.925 2.421 1.618c0.693 0.693 1.243 1.515 1.617 2.421s0.568 1.876 0.568 2.856c0 0.98-0.193 1.95-0.568 2.856s-0.925 1.728-1.617 2.421c-1.399 1.399-3.297 2.186-5.276 2.186s-3.877-0.786-5.276-2.186c-1.399-1.399-2.186-3.297-2.186-5.276s0.786-3.877 2.186-5.276zM24.954 9.487c0.172-0.162 0.309-0.357 0.404-0.573s0.146-0.449 0.149-0.685c0.003-0.236-0.040-0.47-0.129-0.689s-0.22-0.417-0.387-0.584c-0.167-0.167-0.366-0.299-0.584-0.387s-0.453-0.133-0.689-0.129c-0.236 0.003-0.469 0.054-0.685 0.149s-0.411 0.233-0.573 0.404c-0.315 0.334-0.488 0.777-0.481 1.237s0.192 0.897 0.517 1.222c0.325 0.325 0.763 0.51 1.222 0.517s0.903-0.166 1.237-0.481z"></path>
</symbol>
<symbol id="icon-twitter" viewBox="0 0 32 32">
<path d="M31.493 6.516c-1.102 0.488-2.286 0.818-3.53 0.967 1.284-0.768 2.245-1.978 2.703-3.402-1.206 0.717-2.527 1.221-3.904 1.491-0.926-0.989-2.152-1.644-3.489-1.864s-2.709 0.007-3.903 0.646c-1.194 0.639-2.144 1.655-2.702 2.89s-0.692 2.618-0.383 3.937c-2.445-0.123-4.836-0.758-7.019-1.865s-4.109-2.66-5.653-4.56c-0.528 0.911-0.831 1.966-0.831 3.091-0.001 1.012 0.249 2.009 0.726 2.902s1.167 1.654 2.009 2.216c-0.976-0.031-1.931-0.295-2.785-0.769v0.079c-0 1.42 0.491 2.796 1.39 3.895s2.15 1.853 3.542 2.134c-0.906 0.245-1.855 0.281-2.777 0.105 0.393 1.222 1.157 2.29 2.187 3.055s2.273 1.189 3.556 1.213c-2.178 1.71-4.867 2.637-7.636 2.633-0.49 0-0.98-0.029-1.468-0.086 2.81 1.807 6.082 2.766 9.423 2.762 11.31 0 17.493-9.368 17.493-17.492 0-0.264-0.007-0.531-0.018-0.795 1.203-0.87 2.241-1.947 3.066-3.181l0.003-0.004z"></path>
</symbol>
<symbol id="icon-video" viewBox="0 0 33 32">
<path stroke-linejoin="round" stroke-linecap="round" stroke-miterlimit="4" stroke-width="3.9216" d="M24.371 5.279h-15.837c-2.916 0-5.279 2.364-5.279 5.279v10.558c0 2.915 2.364 5.279 5.279 5.279h15.837c2.916 0 5.279-2.364 5.279-5.279v-10.558c0-2.916-2.363-5.279-5.279-5.279z"></path>
<path stroke-linejoin="round" stroke-linecap="round" stroke-miterlimit="4" stroke-width="3.9216" d="M20.412 15.837l-6.599-3.959v7.919l6.599-3.959z"></path>
</symbol>
</defs>
</svg>
